<?xml version="1.0" standalone="no"?>
<!DOCTYPE svg PUBLIC "-//W3C//DTD SVG 20010904//EN"
 "http://www.w3.org/TR/2001/REC-SVG-20010904/DTD/svg10.dtd">
<svg version="1.0" xmlns="http://www.w3.org/2000/svg"
 width="300.000000pt" height="152.000000pt" viewBox="0 0 300.000000 152.000000"
 preserveAspectRatio="xMidYMid meet">
<metadata>
Created by potrace 1.10, written by Peter Selinger 2001-2011
</metadata>
<g transform="translate(0.000000,152.000000) scale(0.100000,-0.100000)"
fill="#000000" stroke="none">
<path d="M290 735 l0 -465 35 0 35 0 0 465 0 465 -35 0 -35 0 0 -465z"/>
<path d="M420 735 l0 -465 35 0 35 0 0 465 0 465 -35 0 -35 0 0 -465z"/>
<path d="M551 735 l1 -465 34 0 34 0 0 465 0 465 -35 0 -36 0 2 -465z"/>
<path d="M1228 1037 c-37 -7 -58 -15 -58 -24 0 -9 8 -11 25 -7 l25 6 0 -76 c0
-62 3 -76 16 -76 13 0 15 13 13 78 -2 77 -2 77 24 80 15 2 27 10 27 18 0 8 -3
13 -7 13 -5 -1 -34 -6 -65 -12z"/>
<path d="M1601 1032 c-37 -20 -71 -73 -71 -110 0 -23 40 -72 60 -72 30 0 80
32 95 60 23 45 15 58 -31 51 -39 -6 -45 -28 -6 -23 30 4 28 -12 -4 -37 -46
-36 -84 -22 -84 30 0 54 82 116 105 79 9 -15 25 -12 25 5 0 13 -29 35 -47 35
-5 0 -24 -8 -42 -18z"/>
<path d="M1733 1032 c-5 -11 -7 -55 -5 -96 3 -61 7 -76 19 -76 12 0 14 8 10
35 -3 19 -3 35 1 35 4 0 29 -18 57 -40 31 -25 53 -36 59 -30 5 5 8 11 5 13 -2
2 -26 19 -52 38 -48 33 -49 34 -24 44 36 15 57 35 57 56 0 21 -37 34 -70 24
-12 -4 -27 -1 -35 5 -12 10 -16 8 -22 -8z m97 -27 c0 -19 -61 -47 -74 -35 -14
14 1 38 26 43 43 8 48 7 48 -8z"/>
<path d="M1942 1034 c-52 -36 -69 -127 -31 -165 35 -35 94 -9 119 52 16 38 5
94 -23 114 -27 19 -37 19 -65 -1z m56 -26 c28 -28 5 -114 -34 -124 -33 -8 -44
2 -44 42 0 69 44 116 78 82z"/>
<path d="M2170 975 c0 -70 -2 -76 -24 -87 -46 -20 -56 -6 -56 77 0 43 -4 75
-10 75 -6 0 -10 -35 -10 -85 0 -75 2 -86 20 -95 23 -12 56 -5 83 18 13 12 17
31 17 94 0 45 -4 78 -10 78 -6 0 -10 -32 -10 -75z"/>
<path d="M2482 1034 c-52 -36 -69 -127 -31 -165 25 -25 62 -19 99 17 35 35 36
117 1 145 -28 23 -40 24 -69 3z m56 -26 c20 -20 15 -85 -9 -109 -29 -29 -63
-22 -67 15 -9 72 39 131 76 94z"/>
<path d="M2698 1045 c-3 -4 -24 -6 -47 -7 l-41 0 0 -95 c0 -71 3 -94 13 -91 6
3 13 23 15 46 3 35 7 42 25 44 41 2 46 3 52 10 16 16 -6 26 -37 18 -37 -11
-48 -6 -41 20 4 14 17 21 49 26 25 3 43 11 41 17 -4 13 -21 20 -29 12z"/>
<path d="M758 1024 c-29 -15 -45 -54 -33 -75 5 -8 25 -9 61 -5 63 7 75 -4 40
-39 -29 -29 -71 -33 -80 -8 -5 13 -9 14 -19 4 -19 -19 29 -54 62 -46 48 11 76
39 76 76 l0 34 -57 -2 c-42 -1 -58 2 -58 11 0 30 45 47 83 31 12 -5 17 -3 17
8 0 29 -49 35 -92 11z"/>
<path d="M907 1033 c-4 -3 -7 -44 -7 -90 0 -70 3 -83 16 -83 14 0 16 9 12 55
-3 30 -2 55 2 55 8 0 40 -79 40 -98 0 -25 26 -11 38 21 7 17 20 43 31 56 18
23 18 23 13 -33 -4 -47 -2 -56 12 -56 14 0 16 14 16 90 0 73 -3 90 -15 90 -8
0 -15 -6 -15 -14 0 -8 -14 -37 -31 -65 l-32 -51 -31 65 c-31 64 -37 71 -49 58z"/>
<path d="M1120 960 c0 -44 0 -83 -1 -87 0 -5 7 -9 15 -11 14 -3 16 11 16 87 0
74 -3 91 -15 91 -12 0 -15 -16 -15 -80z"/>
<path d="M1320 950 c0 -76 3 -90 16 -90 13 0 15 8 12 40 -2 26 1 40 8 40 6 0
26 3 44 6 l32 7 -3 -44 c-3 -32 0 -44 9 -44 10 0 14 21 14 85 1 67 -2 85 -13
85 -10 0 -13 -10 -11 -32 3 -33 3 -33 -40 -33 l-44 0 4 35 c3 27 1 35 -12 35
-14 0 -16 -14 -16 -90z"/>
<path d="M2239 1023 c-5 -81 1 -158 13 -158 9 0 12 11 10 38 -3 29 0 37 13 37
26 0 73 28 86 51 9 17 8 25 -5 37 -13 13 -23 14 -56 5 -22 -5 -40 -6 -40 -2 0
17 -20 9 -21 -8z m101 -23 c0 -10 -52 -40 -70 -40 -14 0 -13 37 3 43 22 9 67
7 67 -3z"/>
<path d="M969 773 c-1 -4 0 -46 1 -93 l1 -85 -26 30 c-46 54 -85 113 -85 130
0 11 -7 15 -21 13 -19 -3 -20 -10 -21 -123 0 -110 1 -120 18 -120 17 0 18 8
16 85 -2 83 -2 85 15 61 10 -14 33 -43 52 -65 18 -23 38 -51 44 -64 6 -12 17
-21 25 -20 11 2 13 29 13 128 0 106 -2 126 -15 128 -9 2 -16 0 -17 -5z"/>
<path d="M1059 778 c-1 -2 -2 -61 -3 -132 -1 -93 2 -130 11 -133 7 -3 35 3 62
12 96 32 153 133 116 206 -22 42 -55 55 -110 42 -25 -6 -45 -6 -45 -2 0 8 -28
13 -31 7z m141 -48 c25 -25 25 -60 0 -109 -17 -35 -68 -71 -99 -71 -7 0 -11
31 -11 89 0 88 0 89 28 99 42 16 60 14 82 -8z"/>
<path d="M1305 771 c-6 -6 -9 -59 -7 -121 3 -104 5 -111 28 -126 33 -22 89
-10 126 26 28 29 29 31 26 127 -3 84 -5 98 -20 101 -16 3 -18 -7 -18 -96 0
-114 -12 -136 -72 -130 l-33 3 -2 104 c-1 101 -9 131 -28 112z"/>
<path d="M1890 773 c-25 -4 -103 -21 -129 -29 -10 -3 -11 -7 -1 -19 8 -10 18
-11 36 -4 14 5 27 9 30 9 2 0 4 -47 4 -105 0 -98 1 -105 20 -105 19 0 20 7 20
109 l0 110 37 3 c27 2 39 8 41 21 4 17 -4 19 -58 10z"/>
<path d="M1979 773 c-1 -5 -1 -12 0 -17 1 -4 -4 -14 -10 -22 -9 -11 -8 -18 1
-29 9 -11 11 -40 7 -101 -5 -83 -4 -85 17 -82 19 3 21 8 17 57 l-3 53 80 -62
c44 -34 85 -59 91 -55 14 8 14 35 1 35 -5 0 -39 21 -76 47 l-65 48 32 8 c74
19 113 75 74 107 -15 12 -85 10 -117 -4 -13 -6 -18 -4 -18 8 0 16 -29 23 -31
9z m141 -47 c0 -19 -19 -33 -68 -50 l-42 -15 0 30 c0 21 6 32 23 39 35 14 87
12 87 -4z"/>
<path d="M729 765 c0 -3 0 -58 -1 -122 0 -104 2 -118 17 -118 15 0 17 15 18
123 2 110 0 122 -15 122 -10 0 -18 -2 -19 -5z"/>
<path d="M1574 751 c-37 -23 -62 -76 -47 -100 10 -16 47 -19 133 -10 32 4 35
1 38 -23 3 -22 -3 -32 -30 -48 -43 -26 -94 -26 -108 0 -6 11 -16 17 -25 14
-43 -17 20 -79 72 -71 86 14 144 73 129 131 -8 33 -42 42 -101 27 -24 -6 -51
-11 -59 -11 -25 0 -19 37 10 59 32 25 71 27 96 5 16 -16 18 -15 24 1 17 43
-75 61 -132 26z"/>
<path d="M2212 648 c3 -111 5 -123 21 -123 16 0 18 11 19 120 1 116 0 120 -21
123 -21 3 -22 2 -19 -120z"/>
<path d="M2298 751 c-2 -7 -1 -63 2 -125 5 -104 6 -111 25 -109 11 1 51 6 88
9 55 6 67 10 65 23 -4 17 -7 18 -85 7 l-53 -7 0 39 c0 36 3 40 31 46 17 3 43
6 56 6 18 0 24 5 21 18 -4 18 -10 19 -70 9 -38 -6 -38 -5 -38 28 l0 34 62 3
c49 2 63 7 66 20 3 14 -8 16 -82 15 -63 -2 -86 -6 -88 -16z"/>
<path d="M2545 739 c-31 -27 -36 -37 -33 -68 l3 -36 50 2 c28 0 64 4 81 8 54
12 55 -43 2 -77 -43 -28 -77 -28 -103 0 -21 23 -25 24 -31 9 -19 -50 37 -76
113 -52 61 19 93 53 93 102 0 47 -31 60 -105 44 -78 -18 -96 -1 -50 44 27 28
70 33 94 11 11 -10 22 -12 31 -6 12 7 11 12 -4 29 -31 34 -97 29 -141 -10z"/>
<path d="M1060 325 c0 -37 4 -65 10 -65 6 0 10 28 10 65 0 37 -4 65 -10 65 -6
0 -10 -28 -10 -65z"/>
<path d="M1890 324 c0 -43 4 -63 11 -59 5 4 9 17 7 28 -3 26 10 50 23 42 5 -4
9 -22 9 -41 0 -21 4 -33 10 -29 11 7 13 45 4 69 -3 9 -16 16 -29 16 -18 0 -22
4 -18 20 3 11 0 20 -6 20 -7 0 -11 -24 -11 -66z"/>
<path d="M2440 331 c0 -33 5 -63 10 -66 6 -3 10 3 10 14 0 27 7 26 31 -1 21
-27 26 -11 5 18 -13 17 -12 21 1 37 20 22 6 22 -19 0 -17 -15 -18 -14 -18 20
0 21 -4 37 -10 37 -6 0 -10 -26 -10 -59z"/>
<path d="M951 329 c-11 -29 -21 -56 -21 -60 0 -17 18 -9 23 11 7 28 53 27 60
-1 3 -12 10 -18 15 -15 13 8 -29 116 -44 116 -6 0 -21 -23 -33 -51z"/>
<path d="M1825 364 c-20 -47 9 -124 37 -96 9 9 8 12 -5 12 -20 0 -24 45 -4 53
8 4 9 8 1 14 -6 4 -13 15 -16 22 -3 12 -6 10 -13 -5z"/>
<path d="M1106 328 c16 -54 25 -69 34 -63 5 3 10 15 10 25 0 32 17 32 24 0 8
-41 21 -38 34 9 15 47 15 51 2 51 -5 0 -10 -9 -10 -19 0 -30 -17 -34 -24 -6
-8 33 -22 32 -31 -2 l-7 -28 -10 28 c-12 32 -33 37 -22 5z"/>
<path d="M1250 340 c0 -6 7 -10 16 -8 10 2 19 -3 21 -9 3 -8 -4 -13 -16 -13
-25 0 -40 -28 -22 -39 7 -5 23 -6 37 -3 24 4 32 31 18 66 -7 18 -54 22 -54 6z"/>
<path d="M1330 345 c0 -4 7 -19 14 -34 8 -15 12 -38 9 -49 -11 -44 13 -20 34
33 11 30 17 55 12 55 -5 0 -14 -12 -20 -27 l-11 -28 -10 28 c-8 23 -28 38 -28
22z"/>
<path d="M1430 336 c-9 -12 -7 -17 9 -28 24 -15 28 -33 6 -25 -8 4 -17 2 -20
-2 -7 -12 21 -22 40 -15 22 9 18 42 -5 49 -11 4 -18 10 -15 15 3 5 12 7 20 3
8 -3 15 0 15 6 0 16 -35 14 -50 -3z"/>
<path d="M1573 343 c-7 -2 -13 -18 -13 -33 0 -53 64 -64 76 -14 10 40 -22 64
-63 47z m45 -36 c-2 -11 -9 -22 -15 -25 -16 -4 -27 22 -19 43 8 22 38 6 34
-18z"/>
<path d="M1665 308 c1 -24 5 -41 11 -38 5 3 8 16 6 29 -3 24 15 44 30 35 4 -3
8 -21 8 -40 0 -21 4 -33 10 -29 11 7 13 45 4 69 -4 10 -18 16 -38 16 -31 0
-32 -1 -31 -42z"/>
<path d="M1990 331 c-5 -11 -7 -27 -4 -36 8 -19 41 -38 54 -30 17 10 11 22
-10 21 -10 -1 -19 4 -19 9 0 6 8 9 19 7 24 -4 35 15 20 33 -17 21 -47 19 -60
-4z"/>
<path d="M2140 304 c0 -27 4 -43 10 -39 6 3 10 19 10 36 0 20 5 29 16 29 11 0
15 -8 14 -27 -3 -45 2 -51 9 -10 8 47 25 49 29 2 2 -19 8 -35 13 -35 6 0 9 19
7 42 l-3 43 -52 2 -53 3 0 -46z"/>
<path d="M2285 341 c-3 -7 2 -11 14 -11 12 0 21 -4 21 -10 0 -5 -6 -10 -14
-10 -7 0 -19 -6 -25 -14 -14 -17 2 -31 37 -31 21 -1 23 3 20 40 -2 32 -7 41
-25 43 -11 2 -24 -2 -28 -7z"/>
<path d="M2370 309 c0 -21 5 -41 10 -44 6 -4 10 8 10 29 0 25 4 36 15 36 8 0
15 4 15 9 0 5 -11 9 -25 9 -22 0 -25 -5 -25 -39z"/>
</g>
</svg>
